#Comment line ignore any data following # character 
#Hierarchical Translation and Rotation (.htr) file 
[Header]	
#Header keywords are followed by a single value 
FileType HTR		#Single word string
DataType HTRS		#Translation followed by rotation and scale data
FileVersion 1		#integer
NumSegments 64		#integer
NumFrames 3		#integer
DataFrameRate 30		#integer, data frame rate in this file
EulerRotationOrder ZYX
CalibrationUnits mm
RotationUnits Degrees
GlobalAxisofGravity Y
BoneLengthAxis Y
ScaleFactor 1.00
[SegmentNames&Hierarchy]
#CHILD	PARENT
Pinger_Root GLOBAL
Pelvis Pinger_Root
L_Hip Pelvis
R_Hip Pelvis
Rear_Leg01 Pelvis
Spine1 Pelvis
L_Leg01 L_Hip
L_Leg02 L_Leg01
L_Leg03 L_Leg02
L_Foot L_Leg03
L_Toe1_01 L_Foot
L_Toe2_01 L_Foot
L_Toe3_01 L_Foot
planeAlignerLeft L_Foot
L_Toe1_02 L_Toe1_01
L_Toe1_03 L_Toe1_02
L_Toe2_02 L_Toe2_01
L_Toe2_03 L_Toe2_02
L_Toe3_02 L_Toe3_01
L_Toe3_03 L_Toe3_02
planeLockWeightLeft planeAlignerLeft
R_Leg01 R_Hip
R_Leg02 R_Leg01
R_Leg03 R_Leg02
R_Foot R_Leg03
planeAlignerRight R_Foot
R_Toe1_01 R_Foot
R_Toe2_01 R_Foot
R_Toe3_01 R_Foot
planeLockWeightRight planeAlignerRight
R_Toe1_02 R_Toe1_01
R_Toe1_03 R_Toe1_02
R_Toe2_02 R_Toe2_01
R_Toe2_03 R_Toe2_02
R_Toe3_02 R_Toe3_01
R_Toe3_03 R_Toe3_02
Rear_Leg02 Rear_Leg01
Rear_Leg03 Rear_Leg02
Rear_Leg04 Rear_Leg03
Rear_Foot Rear_Leg04
planeAlignerCenter Rear_Foot
Rear_Toe1_01 Rear_Foot
Rear_Toe2_01 Rear_Foot
Rear_Toe3_01 Rear_Foot
planeLockWeightCenter planeAlignerCenter
Rear_Toe1_02 Rear_Toe1_01
Rear_Toe1_03 Rear_Toe1_02
Rear_Toe2_02 Rear_Toe2_01
Rear_Toe2_03 Rear_Toe2_02
Rear_Toe3_02 Rear_Toe3_01
Rear_Toe3_03 Rear_Toe3_02
Back_Bone Spine1
Head Spine1
Motor_Bone Back_Bone
Ping_Mechanism Back_Bone
BN_LookIK Head
bottomMouth Head
L_Mouth01 Head
L_mouthFront Head
mouthGun Head
R_Mouth01 Head
R_mouthFront Head
TopMouth Head
weapon_bone Head
[BasePosition]
#SegmentName Tx, Ty, Tz, Rx, Ry, Rz, BoneLength
Pinger_Root 0.000000 0.000000 0.000000 -90.000000 0.000000 0.000000 10.000000 
Pelvis 0.000000 0.000000 0.000000 0.000000 0.000000 0.000000 10.000000 
L_Hip 0.000000 0.000000 0.000000 0.000000 0.000000 0.000000 10.000000 
R_Hip 0.000000 0.000000 0.000000 0.000000 0.000000 0.000000 10.000000 
Rear_Leg01 0.000000 0.000000 0.000000 0.000000 0.000000 0.000000 10.000000 
Spine1 0.000000 0.000000 0.000000 0.000000 0.000000 0.000000 10.000000 
L_Leg01 0.000000 0.000000 0.000000 0.000000 0.000000 0.000000 10.000000 
L_Leg02 0.000000 0.000000 0.000000 0.000000 0.000000 0.000000 10.000000 
L_Leg03 0.000000 0.000000 0.000000 0.000000 0.000000 0.000000 10.000000 
L_Foot 0.000000 0.000000 0.000000 0.000000 0.000000 0.000000 10.000000 
L_Toe1_01 0.000000 0.000000 0.000000 0.000000 0.000000 0.000000 10.000000 
L_Toe2_01 0.000000 0.000000 0.000000 0.000000 0.000000 0.000000 10.000000 
L_Toe3_01 0.000000 0.000000 0.000000 0.000000 0.000000 0.000000 10.000000 
planeAlignerLeft 0.000000 0.000000 0.000000 0.000000 0.000000 0.000000 10.000000 
L_Toe1_02 0.000000 0.000000 0.000000 0.000000 0.000000 0.000000 10.000000 
L_Toe1_03 0.000000 0.000000 0.000000 0.000000 0.000000 0.000000 10.000000 
L_Toe2_02 0.000000 0.000000 0.000000 0.000000 0.000000 0.000000 10.000000 
L_Toe2_03 0.000000 0.000000 0.000000 0.000000 0.000000 0.000000 10.000000 
L_Toe3_02 0.000000 0.000000 0.000000 0.000000 0.000000 0.000000 10.000000 
L_Toe3_03 0.000000 0.000000 0.000000 0.000000 0.000000 0.000000 10.000000 
planeLockWeightLeft 0.000000 0.000000 0.000000 0.000000 0.000000 0.000000 10.000000 
R_Leg01 0.000000 0.000000 0.000000 0.000000 0.000000 0.000000 10.000000 
R_Leg02 0.000000 0.000000 0.000000 0.000000 0.000000 0.000000 10.000000 
R_Leg03 0.000000 0.000000 0.000000 0.000000 0.000000 0.000000 10.000000 
R_Foot 0.000000 0.000000 0.000000 0.000000 0.000000 0.000000 10.000000 
planeAlignerRight 0.000000 0.000000 0.000000 0.000000 0.000000 0.000000 10.000000 
R_Toe1_01 0.000000 0.000000 0.000000 0.000000 0.000000 0.000000 10.000000 
R_Toe2_01 0.000000 0.000000 0.000000 0.000000 0.000000 0.000000 10.000000 
R_Toe3_01 0.000000 0.000000 0.000000 0.000000 0.000000 0.000000 10.000000 
planeLockWeightRight 0.000000 0.000000 0.000000 0.000000 0.000000 0.000000 10.000000 
R_Toe1_02 0.000000 0.000000 0.000000 0.000000 0.000000 0.000000 10.000000 
R_Toe1_03 0.000000 0.000000 0.000000 0.000000 0.000000 0.000000 10.000000 
R_Toe2_02 0.000000 0.000000 0.000000 0.000000 0.000000 0.000000 10.000000 
R_Toe2_03 0.000000 0.000000 0.000000 0.000000 0.000000 0.000000 10.000000 
R_Toe3_02 0.000000 0.000000 0.000000 0.000000 0.000000 0.000000 10.000000 
R_Toe3_03 0.000000 0.000000 0.000000 0.000000 0.000000 0.000000 10.000000 
Rear_Leg02 0.000000 0.000000 0.000000 0.000000 0.000000 0.000000 10.000000 
Rear_Leg03 0.000000 0.000000 0.000000 0.000000 0.000000 0.000000 10.000000 
Rear_Leg04 0.000000 0.000000 0.000000 0.000000 0.000000 0.000000 10.000000 
Rear_Foot 0.000000 0.000000 0.000000 0.000000 0.000000 0.000000 10.000000 
planeAlignerCenter 0.000000 0.000000 0.000000 0.000000 0.000000 0.000000 10.000000 
Rear_Toe1_01 0.000000 0.000000 0.000000 0.000000 0.000000 0.000000 10.000000 
Rear_Toe2_01 0.000000 0.000000 0.000000 0.000000 0.000000 0.000000 10.000000 
Rear_Toe3_01 0.000000 0.000000 0.000000 0.000000 0.000000 0.000000 10.000000 
planeLockWeightCenter 0.000000 0.000000 0.000000 0.000000 0.000000 0.000000 10.000000 
Rear_Toe1_02 0.000000 0.000000 0.000000 0.000000 0.000000 0.000000 10.000000 
Rear_Toe1_03 0.000000 0.000000 0.000000 0.000000 0.000000 0.000000 10.000000 
Rear_Toe2_02 0.000000 0.000000 0.000000 0.000000 0.000000 0.000000 10.000000 
Rear_Toe2_03 0.000000 0.000000 0.000000 0.000000 0.000000 0.000000 10.000000 
Rear_Toe3_02 0.000000 0.000000 0.000000 0.000000 0.000000 0.000000 10.000000 
Rear_Toe3_03 0.000000 0.000000 0.000000 0.000000 0.000000 0.000000 10.000000 
Back_Bone 0.000000 0.000000 0.000000 0.000000 0.000000 0.000000 10.000000 
Head 0.000000 0.000000 0.000000 0.000000 0.000000 0.000000 10.000000 
Motor_Bone 0.000000 0.000000 0.000000 0.000000 0.000000 0.000000 10.000000 
Ping_Mechanism 0.000000 0.000000 0.000000 0.000000 0.000000 0.000000 10.000000 
BN_LookIK 0.000000 0.000000 0.000000 0.000000 0.000000 0.000000 10.000000 
bottomMouth 0.000000 0.000000 0.000000 0.000000 0.000000 0.000000 10.000000 
L_Mouth01 0.000000 0.000000 0.000000 0.000000 0.000000 0.000000 10.000000 
L_mouthFront 0.000000 0.000000 0.000000 0.000000 0.000000 0.000000 10.000000 
mouthGun 0.000000 0.000000 0.000000 0.000000 0.000000 0.000000 10.000000 
R_Mouth01 0.000000 0.000000 0.000000 0.000000 0.000000 0.000000 10.000000 
R_mouthFront 0.000000 0.000000 0.000000 0.000000 0.000000 0.000000 10.000000 
TopMouth 0.000000 0.000000 0.000000 0.000000 0.000000 0.000000 10.000000 
weapon_bone 0.000000 0.000000 0.000000 0.000000 0.000000 0.000000 10.000000 
#Beginning of Data. Separated by tabs
#Fr	Tx	Ty	Tz	Rx	Ry	Rz	SF
[Pinger_Root]
97 0.000000 0.000000 0.000000 -0.000069 0.000029 44.999935 0.000000
98 0.000000 0.000000 0.000000 -0.000069 0.000029 44.999935 0.000000
99 0.000000 0.000000 0.000000 -0.000069 0.000029 44.999935 0.000000
[Pelvis]
97 236.643280 863.246338 4398.058105 -104.833061 -85.353416 98.008652 4488.218750
98 239.646271 860.243347 4418.197754 -104.147270 -85.478226 97.325935 4507.540039
99 245.895126 853.994324 4434.415039 -103.422630 -85.602432 96.604408 4522.588379
[L_Hip]
97 5.766392 125.831482 872.656799 160.158691 -45.484894 122.312202 881.701050
98 5.766392 125.831482 872.656799 160.158691 -45.484905 122.312202 881.701050
99 5.766392 125.831482 872.656799 160.158691 -45.484905 122.312202 881.701050
[R_Hip]
97 5.765438 125.836372 -872.654907 38.087841 49.812687 125.703735 881.699829
98 5.765438 125.836372 -872.654907 38.087830 49.812672 125.703735 881.699829
99 5.765438 125.836372 -872.654907 38.087841 49.812687 125.703735 881.699829
[Rear_Leg01]
97 -192.298416 -925.602966 -0.001907 168.449493 -9.479133 -161.661606 945.367432
98 -192.298416 -925.602966 -0.001907 168.509918 -9.442665 -161.717148 945.367432
99 -192.298416 -925.602966 -0.001907 168.570297 -9.406141 -161.772629 945.367432
[Spine1]
97 290.604584 5.007505 0.000477 7.284755 0.087054 19.321711 290.647736
98 290.604584 5.007505 0.000477 7.277668 0.062592 19.330118 290.647736
99 290.604584 5.007505 0.000477 7.270577 0.038130 19.338537 290.647736
[L_Leg01]
97 761.932007 -0.002384 -0.069261 15.135057 -23.565828 -5.149939 761.932068
98 761.932007 -0.002384 -0.069261 15.635009 -23.402376 -6.614582 761.932068
99 761.932007 -0.002384 -0.069261 16.051926 -23.228067 -7.799486 761.932068
[L_Leg02]
97 1441.140503 -0.000954 -0.000715 2.587957 -0.187507 -128.854660 1441.140503
98 1441.140503 -0.000954 -0.000715 2.412560 -0.183241 -127.204720 1441.140503
99 1441.140503 -0.000954 -0.000715 2.237359 -0.173926 -125.554794 1441.140503
[L_Leg03]
97 1686.963989 -0.000715 -0.000954 -0.029440 0.013860 118.102959 1686.963989
98 1686.963989 -0.000715 -0.000954 -0.028948 0.012971 117.945923 1686.963989
99 1686.963989 -0.000715 -0.000954 -0.028455 0.012084 117.788857 1686.963989
[L_Foot]
97 3041.570068 -30.715107 11.297464 11.194183 12.881147 52.140247 3041.746094
98 3041.570068 -30.715107 11.297464 11.102677 12.937018 51.774990 3041.746094
99 3041.570068 -30.715107 11.297464 11.010786 12.992317 51.409557 3041.746094
[L_Toe1_01]
97 -188.216690 -224.732346 -21.137953 93.666893 -6.794508 -171.353912 293.899567
98 -188.216690 -224.732346 -21.137953 93.688065 -6.825293 -171.580994 293.899567
99 -188.216690 -224.732346 -21.137953 93.693214 -6.831511 -171.645889 293.899567
[L_Toe2_01]
97 200.746536 -219.926590 148.838394 -89.831604 -26.079290 -53.301414 332.896027
98 200.746536 -219.926590 148.838394 -89.890053 -26.151165 -53.113533 332.896027
99 200.746536 -219.926590 148.838394 -89.948761 -26.222853 -52.925434 332.896027
[L_Toe3_01]
97 188.832520 -219.859131 -191.078659 -99.914429 13.764168 -68.396484 347.140900
98 188.832520 -219.859131 -191.078659 -99.866646 13.788815 -68.131554 347.140900
99 188.832520 -219.859131 -191.078659 -99.851601 13.799314 -68.042595 347.140900
[planeAlignerLeft]
97 0.812531 -811.448792 -0.314951 0.000000 -90.000000 -90.001900 811.449280
98 0.812531 -811.448792 -0.314951 0.000000 -90.000000 -90.001900 811.449280
99 0.812531 -811.448792 -0.314951 0.000000 -90.000000 -90.001900 811.449280
[L_Toe1_02]
97 413.761139 0.000477 0.000000 0.001384 -25.942698 0.001384 413.761139
98 413.761139 0.000477 0.000000 0.001384 -25.944893 0.001384 413.761139
99 413.761139 0.000477 0.000000 0.001384 -25.947086 0.001384 413.761139
[L_Toe1_03]
97 464.317322 0.000358 -0.000089 0.003663 52.624359 0.003663 464.317322
98 464.317322 0.000358 -0.000089 0.003680 52.806572 0.003680 464.317322
99 464.317322 0.000358 -0.000089 0.003698 52.988792 0.003698 464.317322
[L_Toe2_02]
97 342.235809 -0.000477 0.000238 0.001188 -72.218269 0.001188 342.235809
98 342.235809 -0.000477 0.000238 0.001188 -72.234947 0.001188 342.235809
99 342.235809 -0.000477 0.000238 0.001188 -72.251694 0.001188 342.235809
[L_Toe2_03]
97 420.210846 -0.000715 0.000000 0.025866 84.798698 0.025866 420.210846
98 420.210846 -0.000715 0.000000 0.026761 84.972939 0.026761 420.210846
99 420.210846 -0.000715 0.000000 0.027720 85.146912 0.027720 420.210846
[L_Toe3_02]
97 329.270111 0.000954 0.000000 0.001178 -80.185463 0.001178 329.270111
98 329.270111 0.000954 0.000000 0.001178 -80.233574 0.001178 329.270111
99 329.270111 0.000954 0.000000 0.001178 -80.281631 0.001178 329.270111
[L_Toe3_03]
97 439.137451 -0.001907 0.000954 -179.995392 79.637108 -179.991882 439.137451
98 439.137451 -0.001907 0.000954 -179.995575 79.339081 -179.992050 439.137451
99 439.137451 -0.001907 0.000954 -179.995743 79.040985 -179.992218 439.137451
[planeLockWeightLeft]
97 -0.000954 0.000238 -0.000305 -0.011826 -0.004376 0.005620 0.001029
98 -0.000954 0.000238 -0.000305 -0.011826 -0.004376 0.005620 0.001029
99 -0.000954 0.000238 -0.000305 -0.011826 -0.004376 0.005620 0.001029
[R_Leg01]
97 761.455627 -0.001907 -0.000358 119.774406 -0.318650 37.447926 761.455688
98 761.455627 -0.001907 -0.000358 119.725975 0.231015 37.815041 761.455688
99 761.455627 -0.001907 -0.000358 119.711388 0.538842 38.117516 761.455688
[R_Leg02]
97 1441.140625 0.000000 -0.000238 -1.559063 -0.300930 -125.085220 1441.140625
98 1441.140625 0.000000 -0.000238 -1.515841 -0.279954 -123.777740 1441.140625
99 1441.140625 0.000000 -0.000238 -1.480204 -0.259939 -122.834221 1441.140625
[R_Leg03]
97 1686.963989 0.000954 0.001431 0.081666 -0.047177 132.971252 1686.963989
98 1686.963989 0.000954 0.001431 0.081781 -0.046979 132.693207 1686.963989
99 1686.963989 0.000954 0.001431 0.081894 -0.046780 132.415131 1686.963989
[R_Foot]
97 3041.560059 -30.531288 -11.204481 2.249289 -24.808018 66.692169 3041.734131
98 3041.560059 -30.531288 -11.204481 2.086319 -24.824738 66.358215 3041.734131
99 3041.560059 -30.531288 -11.204481 1.923433 -24.842310 66.024269 3041.734131
[planeAlignerRight]
97 -0.635147 -812.270569 -0.364304 0.000000 -89.960434 -90.005180 812.270874
98 -0.635147 -812.270569 -0.364304 0.000000 -89.960434 -90.005180 812.270874
99 -0.635147 -812.270569 -0.364304 0.000000 -89.960434 -90.005180 812.270874
[R_Toe1_01]
97 -188.383347 -224.864899 21.052242 76.761040 -0.401913 -172.798660 294.101532
98 -188.383347 -224.864899 21.052242 76.761116 -0.402212 -172.796600 294.101532
99 -188.383347 -224.864899 21.052242 76.761192 -0.402513 -172.794540 294.101532
[R_Toe2_01]
97 200.637817 -220.002121 -148.787384 -91.720848 32.893394 -59.123833 332.857574
98 200.637817 -220.002121 -148.787384 -91.721550 32.892788 -59.125664 332.857574
99 200.637817 -220.002121 -148.787384 -91.722260 32.892178 -59.127480 332.857574
[R_Toe3_01]
97 188.606735 -220.092957 191.126343 -73.233948 -8.432470 -73.644402 347.192566
98 188.606735 -220.092957 191.126343 -73.232841 -8.437032 -73.671867 347.192566
99 188.606735 -220.092957 191.126343 -73.231735 -8.441591 -73.699341 347.192566
[planeLockWeightRight]
97 -0.000477 0.000000 0.000000 -0.011823 -0.004379 -0.000027 0.000477
98 -0.000477 0.000000 0.000000 -0.011823 -0.004379 -0.000027 0.000477
99 -0.000477 0.000000 0.000000 -0.011823 -0.004379 -0.000027 0.000477
[R_Toe1_02]
97 413.762085 0.000477 -0.000119 0.001395 -24.575462 0.001395 413.762085
98 413.762085 0.000477 -0.000119 0.001395 -24.597731 0.001395 413.762085
99 413.762085 0.000477 -0.000119 0.001394 -24.619999 0.001394 413.762085
[R_Toe1_03]
97 464.317810 0.000000 0.001088 0.006662 69.707932 0.006662 464.317810
98 464.317810 0.000000 0.001088 0.006629 69.605431 0.006629 464.317810
99 464.317810 0.000000 0.001088 0.006629 69.605003 0.006629 464.317810
[R_Toe2_02]
97 342.234741 -0.000954 0.000238 0.001197 -67.197510 0.001197 342.234741
98 342.234741 -0.000954 0.000238 0.001197 -67.198235 0.001197 342.234741
99 342.234741 -0.000954 0.000238 0.001197 -67.199005 0.001197 342.234741
[R_Toe2_03]
97 420.210846 0.000715 -0.000268 0.008213 73.568832 0.008213 420.210846
98 420.210846 0.000715 -0.000268 0.008214 73.570374 0.008214 420.210846
99 420.210846 0.000715 -0.000268 0.008214 73.571945 0.008214 420.210846
[R_Toe3_02]
97 329.270355 -0.000477 -0.000954 0.001184 -74.512955 0.001184 329.270355
98 329.270355 -0.000477 -0.000954 0.001184 -74.513145 0.001184 329.270355
99 329.270355 -0.000477 -0.000954 0.001184 -74.513321 0.001184 329.270355
[R_Toe3_03]
97 439.137939 0.000238 0.001431 -0.011570 83.288757 -0.008068 439.137939
98 439.137939 0.000238 0.001431 -0.011571 83.289284 -0.008068 439.137939
99 439.137939 0.000238 0.001431 -0.011572 83.289871 -0.008069 439.137939
[Rear_Leg02]
97 1162.777710 -0.029802 0.005960 1.022854 -2.801806 -131.717392 1162.777710
98 1162.777710 -0.029802 0.005960 0.991741 -2.816985 -131.065247 1162.777710
99 1162.777710 -0.029802 0.005960 0.969691 -2.821183 -130.618607 1162.777710
[Rear_Leg03]
97 607.192505 -0.013351 -0.073195 0.010534 -0.005020 67.314362 607.192505
98 607.192505 -0.013351 -0.073195 0.010540 -0.005006 67.166016 607.192505
99 607.192505 -0.013351 -0.073195 0.010547 -0.004992 67.017654 607.192505
[Rear_Leg04]
97 995.874512 -0.020504 -0.011921 -0.043909 -0.017146 64.403465 995.874573
98 995.874512 -0.020504 -0.011921 -0.043849 -0.017298 64.006882 995.874573
99 995.874512 -0.020504 -0.011921 -0.043789 -0.017449 63.610302 995.874573
[Rear_Foot]
97 3096.176270 -0.067472 -0.041425 -169.123764 76.081772 19.256920 3096.176270
98 3096.176270 -0.067472 -0.041425 -169.132355 76.050148 19.148291 3096.176270
99 3096.176270 -0.067472 -0.041425 -169.140686 76.018532 19.039932 3096.176270
[planeAlignerCenter]
97 0.350077 0.966311 -838.790894 0.000009 0.000003 -179.999985 838.791565
98 0.350077 0.966311 -838.790894 0.000009 0.000003 -179.999985 838.791565
99 0.350077 0.966311 -838.790894 0.000009 0.000003 -179.999985 838.791565
[Rear_Toe1_01]
97 0.653352 83.966492 -371.173737 0.294435 41.908504 90.410255 380.553192
98 0.653352 83.966492 -371.173737 0.294446 41.908443 90.410263 380.553192
99 0.653352 83.966492 -371.173737 0.294453 41.908379 90.410286 380.553192
[Rear_Toe2_01]
97 178.200760 -294.826019 -362.060547 -7.199679 34.404160 -66.271927 499.765686
98 178.200760 -294.826019 -362.060547 -7.199715 34.404137 -66.271935 499.765686
99 178.200760 -294.826019 -362.060547 -7.199749 34.404118 -66.271942 499.765686
[Rear_Toe3_01]
97 -153.359680 -308.780914 -362.060852 3.290142 33.512657 -112.541954 499.952881
98 -153.359680 -308.780914 -362.060852 3.290152 33.512611 -112.541969 499.952881
99 -153.359680 -308.780914 -362.060852 3.290159 33.512554 -112.541985 499.952881
[planeLockWeightCenter]
97 -0.000062 0.000238 0.000000 -0.011814 -0.004373 -0.000015 0.000246
98 -0.000062 0.000238 0.000000 -0.011814 -0.004373 -0.000015 0.000246
99 -0.000062 0.000238 0.000000 -0.011814 -0.004373 -0.000015 0.000246
[Rear_Toe1_02]
97 379.707825 0.194073 0.000477 -0.000242 -31.680603 0.006934 379.707855
98 379.707825 0.194073 0.000477 -0.000242 -31.680637 0.006934 379.707855
99 379.707825 0.194073 0.000477 -0.000242 -31.680681 0.006934 379.707855
[Rear_Toe1_03]
97 500.129700 0.165701 0.000119 -0.000102 51.914856 0.007296 500.129761
98 500.129700 0.165701 0.000119 -0.000102 51.914986 0.007296 500.129761
99 500.129700 0.165701 0.000119 -0.000102 51.915119 0.007296 500.129761
[Rear_Toe2_02]
97 340.494507 0.000238 -0.000954 0.001192 -69.859024 0.001192 340.494507
98 340.494507 0.000238 -0.000954 0.001192 -69.859093 0.001192 340.494507
99 340.494507 0.000238 -0.000954 0.001192 -69.859131 0.001192 340.494507
[Rear_Toe2_03]
97 433.103577 0.000000 0.000238 0.006697 69.814842 0.006697 433.103546
98 433.103577 0.000000 0.000238 0.006697 69.814903 0.006697 433.103546
99 433.103577 0.000000 0.000238 0.006697 69.814926 0.006697 433.103546
[Rear_Toe3_02]
97 340.494141 -0.000358 -0.000477 0.008290 -67.279144 -0.009462 340.494171
98 340.494141 -0.000358 -0.000477 0.008290 -67.279205 -0.009462 340.494171
99 340.494141 -0.000358 -0.000477 0.008290 -67.279251 -0.009462 340.494171
[Rear_Toe3_03]
97 433.103577 0.001431 -0.000238 -0.000972 65.958961 -0.004547 433.103546
98 433.103577 0.001431 -0.000238 -0.000972 65.958984 -0.004547 433.103546
99 433.103577 0.001431 -0.000238 -0.000972 65.958984 -0.004547 433.103546
[Back_Bone]
97 1312.175781 -701.934692 0.000954 0.000023 -0.000007 -85.606667 1488.125488
98 1312.175781 -701.934692 0.000954 0.000023 -0.000007 -85.606667 1488.125488
99 1312.175781 -701.934692 0.000954 0.000023 -0.000007 -85.606667 1488.125488
[Head]
97 1406.159424 809.709290 0.001431 0.000625 -1.475623 7.768026 1622.625488
98 1406.159424 809.709290 0.001431 0.000625 -1.475623 7.768025 1622.625488
99 1406.159424 809.709290 0.001431 0.000625 -1.475623 7.768025 1622.625488
[Motor_Bone]
97 1158.364380 -417.834747 0.000477 -0.114406 0.066669 -105.915695 1231.419434
98 1158.364380 -417.834747 0.000477 -0.113811 0.066964 -105.915703 1231.419434
99 1158.364380 -417.834747 0.000477 -0.113217 0.067259 -105.915695 1231.419434
[Ping_Mechanism]
97 1233.876343 -441.466095 -0.057713 0.000103 -0.000053 82.120995 1310.474365
98 1233.858154 -441.508728 -0.106280 0.000103 -0.000053 82.120995 1310.471680
99 1233.839966 -441.551361 -0.154847 0.000103 -0.000053 82.120995 1310.468872
[BN_LookIK]
97 193.241119 1380.371704 -0.002861 0.000000 89.965736 -31.038179 1393.832153
98 193.241119 1380.371704 -0.002861 0.000000 89.965736 -31.038179 1393.832153
99 193.241119 1380.371704 -0.002861 0.000000 89.965736 -31.038179 1393.832153
[bottomMouth]
97 -435.092926 615.759399 -0.000954 -0.000022 0.000016 73.527184 753.966492
98 -435.092926 615.759399 -0.000954 -0.000022 0.000016 73.527184 753.966492
99 -435.092926 615.759399 -0.000954 -0.000022 0.000016 73.527184 753.966492
[L_Mouth01]
97 554.440979 7.658243 838.222046 150.204178 23.759130 109.605339 1005.027161
98 554.440979 7.658243 838.222046 150.204178 23.759130 109.605339 1005.027161
99 554.440979 7.658243 838.222046 150.204178 23.759130 109.605339 1005.027161
[L_mouthFront]
97 551.629089 934.514771 339.150421 0.000081 2.804060 79.119301 1136.941284
98 551.629089 934.514771 339.150421 0.000081 2.804060 79.119301 1136.941284
99 551.629089 934.514771 339.150421 0.000081 2.804060 79.119301 1136.941284
[mouthGun]
97 55.332661 1627.420898 0.000000 0.000023 0.000009 -11.038128 1628.361328
98 55.332661 1627.420898 0.000000 0.000023 0.000009 -11.038128 1628.361328
99 55.332661 1627.420898 0.000000 0.000023 0.000009 -11.038128 1628.361328
[R_Mouth01]
97 554.442383 7.659197 -838.223938 29.795891 -23.759109 109.605331 1005.029541
98 554.442383 7.659197 -838.223938 29.795891 -23.759109 109.605331 1005.029541
99 554.442383 7.659197 -838.223938 29.795891 -23.759109 109.605331 1005.029541
[R_mouthFront]
97 551.629089 934.514282 -339.151367 0.000029 -2.803930 79.119133 1136.941162
98 551.629089 934.514282 -339.151367 0.000029 -2.803930 79.119133 1136.941162
99 551.629089 934.514282 -339.151367 0.000029 -2.803930 79.119133 1136.941162
[TopMouth]
97 461.269867 -56.106091 -0.008583 -0.000059 -0.000268 92.025169 464.669525
98 461.269867 -56.106091 -0.008583 -0.000059 -0.000268 92.025169 464.669525
99 461.269867 -56.106091 -0.008583 -0.000059 -0.000268 92.025169 464.669525
[weapon_bone]
97 -987.239868 1448.372803 0.001431 0.000000 89.965736 -31.038221 1752.833740
98 -987.239868 1448.372803 0.001431 0.000000 89.965736 -31.038221 1752.833740
99 -987.239868 1448.372803 0.001431 0.000000 89.965736 -31.038221 1752.833740
